<svg width="1234" height="520" viewBox="0 0 1234 520" fill="none" xmlns="http://www.w3.org/2000/svg">
<path d="M59.2649 72.0171C46.9178 76.9594 19.6849 87.4791 9.52578 90.0214L0 8.47313L15.8748 0L1234 5.29577V439.511L1165.21 455.397L1171.56 514.705C1158.51 516.47 1131.13 520 1126.05 520C1120.97 520 1119.7 488.934 1119.7 473.401L1132.4 455.397L1119.7 439.511V399.267L1045.62 342.078H1027.63L1020.22 230.876L1001.17 223.463C1004.34 219.226 1012.6 209.483 1020.22 204.399C1027.84 199.316 1023.39 184.63 1020.22 177.923C1015.63 171.569 1003.5 158.436 991.645 156.742C979.792 155.047 969.067 166.626 965.187 172.628C954.18 183.642 960.601 198.398 965.187 204.399L985.295 223.463L978.945 230.876V333.605L935.554 342.078L942.962 323.014L837.13 253.116L617 299.715V313.483L624.408 323.014V342.078L575.726 313.483V281.711L521.751 258.412L461.427 272.179L286.804 184.277L295.271 122.852C285.041 114.732 263.31 98.4932 258.23 98.4932C253.15 98.4932 228.597 114.732 216.955 122.852V151.446C216.955 156.53 178.15 134.501 158.748 122.852V111.202L117.473 90.0214L105.832 98.4932L59.2649 72.0171Z" fill="black"/>
</svg>
