<svg width="320" height="570" viewBox="0 0 320 570" fill="none" xmlns="http://www.w3.org/2000/svg">
<path d="M232.305 544.265L0.000810821 569.941L102.894 0.00149999L319.832 27.9184L232.305 544.265ZM189.415 62.3167L180.569 87.7306L180.826 112.283L135.672 127.813L88.0796 243.717L90.3939 275.423C87.1012 284.31 80.4183 302.506 80.0271 304.197C79.6371 305.889 86.8678 317.407 90.532 322.955L102.565 319.058L110.1 318.575L110.142 340.85L68.0982 522.606L102.617 530.591L114.609 504.42L112.064 499.378L117.121 467.892L135.861 386.877L156.748 347.92L144.827 447.583C138.349 469.607 125.944 511.672 124.713 515.45C124.677 515.497 124.649 515.561 124.629 515.644C124.594 515.797 124.624 515.725 124.713 515.45C125.679 514.228 132.524 525.084 135.949 530.88L158.492 536.095L189.988 521.857L191.943 513.403L170.215 504.665L207.533 343.34L223.032 346.925L239.513 336.636L247.235 287.212L255.042 282.339L256.918 219.688L252.352 139.96L229.809 134.745L225.966 125.693L240.449 101.582L247.083 60.0708L217.715 45.8561L189.415 62.3167Z" fill="black"/>
</svg>
