<svg width="803" height="572" viewBox="0 0 803 572" fill="none" xmlns="http://www.w3.org/2000/svg">
<path d="M802.977 572H0L4.69681 557.549L15.5165 527.36L21.2752 511.538L28.0569 495.033L39.6206 466.867L48.7895 446.79C54.7109 433.835 61.4616 422.111 69.9794 410.674C71.6458 408.435 72.8781 406.621 74.746 404.568C83.7366 394.65 91.2856 383.685 101.338 374.844C106.996 369.87 111.91 364.523 118.304 360.664L136.618 349.599C142.547 346.02 148.67 343.408 154.328 339.371C159.064 335.993 164.923 335.164 170.24 332.94L193.22 323.316L221.595 312.205C237.701 305.897 253.589 300.458 269.292 293.189L283.157 287.618C290.117 283.542 294.194 276.034 298.093 269.386C308.44 251.758 320.91 251.238 323.088 247.062C323.995 245.326 323.77 243.629 323.08 241.777C322.158 239.321 323.352 237.182 322.856 234.85L321.375 227.884C321.46 223.932 320.492 220.531 320.337 216.718L319.864 205.343C314.539 204.886 311.966 202.112 309.734 198.16C306.502 192.411 288.808 184.19 276.143 153.133C274.485 149.065 275.794 146.043 277.414 142.316C284.335 126.323 286.219 114.592 301.332 100.435C306.665 95.4448 311.842 90.7957 317.934 86.7509L334.745 75.5929L340.434 63.4198L344.324 51.8201C347.68 41.8089 351.935 32.0844 360.368 25.4749L367.328 20.0121C374.009 13.542 382.162 9.79167 391.215 7.6143L417.141 1.37667C425.17 -0.552733 433.138 -0.444252 441.105 1.64012C449.011 0.77228 456.304 2.64744 463.659 4.91779C467.162 6.00259 471.007 6.19631 474.153 8.25744C478.982 11.4344 484.136 13.3405 489.809 14.3478C497.397 15.7039 503.35 19.059 509.271 23.375C512.759 25.9165 515.75 27.9467 518.773 31.0306C522.92 35.2691 528.066 38.5933 531.298 43.8391C533.848 47.9846 534.39 52.6337 535.413 57.3914C536.134 60.731 537.312 64.0087 537.692 67.5111L538.614 76.0346C539.49 84.1009 539.118 92.0045 541.079 99.7608L553.519 107.734C562.036 113.197 571.709 122.379 576.917 130.949C582.126 139.519 585.303 148.492 587.807 158.015C588.923 162.253 588.497 165.895 587.9 170.033C586.536 179.486 583.234 187.87 577.429 195.309C569.461 205.522 559.952 213.185 548.403 218.981L532.972 226.73C529.996 228.225 530.864 232.037 530.438 234.711C529.763 238.903 524.834 240.111 521.059 240.104C518.634 243.18 517.936 246.822 516.719 250.123L513.479 258.886C512.433 261.715 508.907 265.411 509.945 269.014C511.24 273.492 513.565 278.343 516.386 282.124L525.284 294.019L550.659 306.091L559.184 309.934L607.563 331.173L617.321 335.644L655.407 353.226L672.388 361.021C688.285 368.312 701.693 379.896 712.629 393.371L719.271 401.562C722.79 407.466 726.851 412.72 732.238 417.105C734.656 423.343 738.097 428.372 741.833 433.804C752.963 451.982 762.178 470.64 770.618 490.182L776.028 502.696C782.585 517.868 788.607 532.784 793.692 548.545L797.458 557.936L803 571.992L802.977 572Z" fill="black"/>
</svg>
